<?xml version='1.0' encoding='utf-8'?>
<svg xmlns="http://www.w3.org/2000/svg" width="100%" height="100%" viewBox="0 0 2166 2166" version="1.1" style="fill-rule:evenodd;clip-rule:evenodd;stroke-linejoin:round;stroke-miterlimit:2;"> <g transform="matrix(1,0,0,1,0,-1133.11)"> <g id="Artboard1"> </g> <g id="Artboard11"> </g> <g id="Artboard3" transform="matrix(1,0,0,1,2419.78,1822.94)"> <rect x="-2419.78" y="-689.829" width="2165.76" height="2165.76" style="fill:none;"/> <clipPath id="_clip1"> <rect x="-2419.78" y="-689.829" width="2165.76" height="2165.76"/> </clipPath> <g clip-path="url(#_clip1)"> <g transform="matrix(1,0,0,1,-2419.78,-1822.94)"> <rect x="-5.546" y="1128.81" width="2177.47" height="2185.91"/> </g> <g id="Layer-1"> </g> <g transform="matrix(13.0136,0,0,13.0136,-1340.58,1252.06)"> <path d="M0,-118.932C-6.657,-119.097 -10.871,-116.892 -11,-117.263C-11.148,-117.689 -5.817,-121.292 0.594,-120.781C5.168,-120.416 8.846,-118.072 8.716,-117.677C8.595,-117.308 5.202,-118.803 0,-118.932M-13.404,-29.66C-13.72,-29.448 -17.828,-33.64 -20.535,-39.762C-23.79,-47.12 -23.665,-54.201 -23.259,-54.273C-22.892,-54.337 -22.414,-48.644 -19.032,-40.604C-16.144,-33.737 -13.113,-29.856 -13.404,-29.66M-28.841,-51.852C-28.197,-52.313 -27.14,-52.652 -25.771,-52.878C-25.586,-50.727 -25.195,-48.234 -24.465,-45.548C-27.043,-47.078 -31.332,-50.07 -28.841,-51.852M-43.051,-58.581C-50.008,-59.577 -55.245,-63.161 -55.069,-63.599C-54.907,-64.004 -50.196,-61.588 -42.325,-60.561C-34.543,-59.547 -29.499,-60.65 -29.449,-60.231C-29.393,-59.759 -35.735,-57.533 -43.051,-58.581M-49.945,-84.508C-49.663,-84.548 -48.348,-83.168 -48.057,-81.51C-47.65,-79.189 -49.403,-77.2 -49.726,-77.238C-49.997,-77.269 -49.157,-78.72 -49.349,-81.242C-49.502,-83.26 -50.203,-84.472 -49.945,-84.508M-62.002,-85.422C-63.487,-77.077 -62.613,-71.804 -62.926,-71.786C-63.305,-71.766 -65.206,-79.437 -62.86,-87.799C-61.872,-91.325 -60.266,-94.481 -60,-94.39C-59.721,-94.294 -61.077,-90.619 -62.002,-85.422M19.611,-41.942C22.816,-49.73 23.713,-54.262 24.111,-54.167C24.584,-54.055 24.205,-47.471 21.328,-40.62C18.536,-33.974 14.287,-29.204 13.874,-29.46C13.507,-29.686 16.257,-33.791 19.611,-41.942M43.15,-60.71C50.036,-61.511 53.656,-62.76 53.748,-62.444C53.861,-62.053 48.57,-59.43 41.962,-58.878C36.457,-58.418 31.689,-59.535 31.711,-59.918C31.73,-60.279 35.992,-59.878 43.15,-60.71M48.723,-82.236C49.013,-83.895 50.329,-85.274 50.61,-85.234C50.868,-85.198 50.168,-83.986 50.014,-81.968C49.822,-79.446 50.663,-77.995 50.392,-77.964C50.069,-77.927 48.316,-79.915 48.723,-82.236M60.667,-95.116C60.931,-95.207 62.538,-92.051 63.526,-88.525C65.872,-80.164 63.971,-72.493 63.592,-72.513C63.279,-72.53 64.153,-77.803 62.667,-86.148C61.743,-91.345 60.386,-95.02 60.667,-95.116M12.072,-25.27C13.891,-26.728 15.732,-28.453 17.467,-30.496C21.379,-29.617 24.024,-28.771 24.647,-27.911C25.649,-26.53 23.837,-25.91 23.837,-25.91C21.822,-25.22 17.637,-25.74 16.293,-25.923C18.098,-25.415 23.522,-23.969 27.158,-24.243C31.726,-24.586 31.953,-27.532 28.844,-29.88C26.882,-31.363 23.701,-32.519 19.8,-33.54C20.807,-35.005 21.75,-36.599 22.596,-38.332C26.883,-47.12 26.649,-55.304 26.282,-59.148C28.772,-58.182 32.639,-56.996 37.452,-56.803C38.705,-56.752 53.804,-56.503 61.691,-66.297C74.573,-82.295 55.736,-109.626 48.063,-113.547C45.142,-115.04 42.143,-114.663 42.143,-114.663C38.927,-114.323 35.761,-112.356 35.888,-110.927C35.943,-110.317 36.551,-110.329 37.149,-109.028C37.678,-107.88 37.404,-107.434 38,-106.618C38.552,-105.861 38.934,-106.04 39.387,-105.33C40.021,-104.335 39.5,-103.687 39.981,-103.052C40.74,-102.049 43.033,-102.381 44.438,-102.854C46.639,-103.594 47.025,-104.805 48.131,-104.664C49.527,-104.487 50.32,-102.376 50.967,-100.59C51.978,-97.803 53.314,-94.073 51.973,-89.978C50.817,-86.45 48.837,-86.337 48.063,-83.164C47.337,-80.186 48.365,-77.345 49.404,-75.345C45.937,-73.954 43.92,-74.341 42.702,-75.01C40.886,-76.007 40.645,-76.946 39.016,-78.138C35.619,-80.621 32.759,-78.198 25.611,-79.031C24.178,-79.198 23.09,-79.427 22.206,-79.668C19.947,-80.286 19.517,-80.721 18.092,-80.912C16.309,-81.153 14.901,-80.711 13.627,-80.311C9.942,-79.156 8.685,-77.198 7.976,-77.705C7.389,-78.125 7.816,-80.58 9.408,-82.079C12.295,-84.801 17.732,-83.186 18.167,-84.778C18.309,-85.299 17.758,-85.593 17.943,-86.561C18.132,-87.548 18.779,-87.79 18.711,-88.566C18.657,-89.19 18.168,-89.345 18.278,-89.89C18.363,-90.312 18.677,-90.322 18.742,-90.757C18.801,-91.154 18.594,-91.515 18.34,-91.959C18.02,-92.517 17.843,-92.542 17.864,-92.748C17.908,-93.19 18.727,-93.15 19.253,-93.875C19.283,-93.916 19.631,-94.408 19.607,-94.992C19.577,-95.731 18.968,-96.165 18.335,-96.787C18.186,-96.934 16.551,-98.535 16.047,-100.214C15.699,-101.372 16.102,-101.852 16.177,-103.415C16.235,-104.618 16.094,-106.35 15.133,-108.516C15.715,-108.829 16.297,-109.141 16.892,-109.461C13.769,-117.246 6.773,-122.408 -0.841,-122.545C-1.886,-122.564 -10.13,-122.599 -15.337,-115.759C-19.188,-110.701 -19.932,-103.784 -17.283,-97.702C-22.54,-93.495 -24.947,-91.031 -24.505,-90.307C-24.119,-89.676 -21.566,-90.37 -16.846,-92.388C-15.657,-88.211 -13.754,-86.273 -12.229,-85.275C-10.363,-84.055 -8.476,-83.856 -6.587,-81.665C-5.483,-80.384 -4.579,-78.653 -4.989,-78.238C-5.496,-77.724 -7.358,-79.895 -11.112,-80.807C-12.044,-81.034 -14.655,-81.638 -17.64,-80.912C-18.969,-80.589 -19.562,-80.267 -21.754,-79.668C-22.639,-79.427 -23.726,-79.198 -25.16,-79.031C-32.307,-78.198 -35.167,-80.621 -38.564,-78.138C-40.193,-76.946 -40.434,-76.007 -42.25,-75.01C-43.469,-74.341 -45.485,-73.954 -48.952,-75.345C-47.914,-77.345 -46.886,-80.186 -47.612,-83.164C-48.385,-86.337 -50.366,-86.45 -51.521,-89.978C-52.756,-93.747 -51.647,-97.134 -50.516,-100.59C-49.795,-102.79 -49.163,-104.356 -47.947,-104.611C-46.458,-104.922 -45.383,-102.959 -42.081,-102.477C-41.148,-102.341 -40.514,-102.392 -39.986,-102.728C-39.242,-103.203 -39.453,-103.773 -38.563,-104.739C-37.697,-105.678 -37.151,-105.517 -36.636,-106.414C-36.309,-106.983 -36.484,-107.123 -36.133,-107.923C-35.988,-108.251 -35.839,-108.499 -35.696,-108.697C-35.135,-109.472 -34.949,-109.607 -34.877,-109.788C-34.491,-110.767 -37.779,-114.297 -42.085,-114.705C-42.085,-114.705 -44.793,-114.905 -47.612,-113.547C-50.755,-112.032 -75.082,-83.509 -61.239,-66.297C-53.362,-56.502 -38.266,-56.752 -37,-56.803C-32.188,-56.996 -28.321,-58.182 -25.83,-59.148C-25.901,-58.116 -25.962,-56.578 -25.884,-54.693C-30.289,-55.03 -34.889,-55.042 -38.555,-54.265C-46.262,-52.632 -47.083,-48.103 -41.163,-44.398C-37.061,-41.83 -29.77,-39.691 -21.493,-37.841C-21.123,-37.115 -20.731,-36.385 -20.298,-35.652C-14.57,-25.962 -6.331,-21.275 -1.983,-19.3C-5.956,-10.815 -0.398,3.667 0.175,3.61C0.709,3.557 -4.085,-9.059 1.742,-16.026C7.724,-23.178 18.669,-24.765 12.072,-25.27Z" style="fill:white;fill-rule:nonzero;"/> </g> </g> </g> </g> </svg>